<svg width="338" height="400" viewBox="0 0 338 400" fill="none" xmlns="http://www.w3.org/2000/svg">
<path d="M138.04 0.674553C137.046 1.05328 135.673 1.76336 134.963 2.23675C133.496 3.32555 3.73977 133.129 2.46162 134.833C0.615406 137.342 0 139.378 0 143.259C0 147.757 0.852101 150.029 3.73977 153.059C7.43221 156.94 8.47367 157.224 18.5569 157.461C24.7109 157.603 27.5513 157.84 27.8826 158.219C28.214 158.597 28.4034 175.024 28.498 205.179C28.5927 238.742 28.7821 251.902 29.2081 252.944C29.4921 253.701 30.1076 255.642 30.5809 257.204C32.3325 262.98 35.5515 268.329 40.3801 273.394C46.0608 279.359 52.2622 283.004 60.8305 285.466C63.9549 286.365 65.7538 286.46 96.1453 286.602C122.75 286.744 128.288 286.649 128.715 286.128C129.093 285.702 129.235 281.442 129.141 271.832L128.999 258.151L98.2283 257.914C63.2448 257.63 65.7538 257.962 61.3039 253.512C59.4577 251.618 58.6056 250.293 57.8482 247.973L56.8067 244.943V192.161V139.33L55.1972 136.49C54.2031 134.644 52.7829 132.987 51.1734 131.756C49.8005 130.715 48.7118 129.673 48.6644 129.484C48.6644 129.01 142.395 34.9479 142.869 34.9479C143.437 34.9479 237.168 128.916 237.168 129.436C237.168 129.72 236.6 130.383 235.89 130.857C232.765 132.987 230.588 135.827 229.641 138.999C228.647 142.076 228.647 142.975 228.742 172.704L228.884 203.238H243.085H257.287L257.429 180.894C257.524 160.207 257.571 158.503 258.376 158.076C258.802 157.84 263.015 157.556 267.702 157.461C276.696 157.272 276.791 157.224 280.814 154.573C282.755 153.248 285.264 149.082 285.927 146.052C286.637 142.881 286.164 139.851 284.412 136.395C283.702 135.07 261.264 112.3 216.812 67.9432C153.709 4.84039 150.159 1.432 147.839 0.674553C144.904 -0.224861 140.597 -0.224861 138.04 0.674553Z" fill="white"/>
<path d="M155.745 122.051C154.562 122.241 152.1 122.62 150.254 122.904C148.408 123.14 146.135 123.566 145.283 123.85C144.384 124.134 142.395 124.702 140.833 125.129C139.271 125.555 137.283 126.217 136.431 126.596C135.579 126.975 134.679 127.259 134.395 127.259C133.543 127.259 122.702 132.371 119.862 134.123C117.495 135.59 114.56 137.531 112.667 138.951C111.483 139.804 109.921 140.987 109.116 141.555C108.359 142.171 105.329 144.964 102.441 147.804C97.1868 152.916 91.5061 160.112 87.8137 166.171C87.1983 167.165 82.3697 176.87 81.849 178.148C80.5708 181.225 79.5294 184.965 79.5294 186.527C79.5294 188.989 81.1862 192.965 82.9851 194.859C85.5888 197.557 87.7663 198.457 92.1689 198.457C95.7666 198.457 96.1927 198.362 98.3703 196.847C100.69 195.285 103.672 191.545 103.672 190.172C103.672 189.793 103.862 189.273 104.051 188.989C104.24 188.752 104.95 187.285 105.566 185.722C108.974 177.107 117.495 166.361 125.922 159.97C129.141 157.508 136.478 152.822 137.093 152.822C137.236 152.822 138.324 152.396 139.555 151.828C140.786 151.307 142.206 150.692 142.727 150.455C143.816 149.981 147.224 148.94 151.011 147.946C152.431 147.567 156.455 146.952 159.911 146.62C167.154 145.958 175.627 146.573 181.781 148.183C192.054 150.928 191.77 150.928 194.279 150.36C198.871 149.366 201.427 147.378 203.368 143.117C205.498 138.62 204.457 133.413 200.67 129.626C198.871 127.827 197.782 127.259 194.042 126.028C191.581 125.223 187.983 124.182 186.042 123.803C184.101 123.377 181.308 122.809 179.888 122.478C176.764 121.815 158.775 121.483 155.745 122.051Z" fill="white"/>
<path d="M159.532 161.343C151.437 162.242 142.206 165.887 135.389 170.905C127.436 176.775 120.336 186.527 117.353 195.616C116.264 198.977 116.217 199.971 117.211 202.859C118.253 206.031 119.578 207.83 122.087 209.534C125.259 211.617 128.525 212.327 131.413 211.522C135.957 210.291 138.419 208.256 140.407 203.995C141.07 202.528 142.111 200.397 142.679 199.214C143.768 196.894 149.496 190.788 151.721 189.604C156.834 186.906 161.662 185.486 165.97 185.486C167.816 185.486 170.941 185.959 173.639 186.716C178.846 188.089 181.071 188.042 184.385 186.432C188.409 184.492 190.681 181.367 191.439 176.681C191.865 174.314 190.444 169.958 188.504 167.544C186.989 165.651 183.012 163.378 180.172 162.763C179.13 162.526 177.379 162.148 176.385 161.864C173.734 161.201 163.698 160.869 159.532 161.343Z" fill="white"/>
<path d="M165.923 219.806C165.686 219.854 164.171 220.327 162.656 220.753C154.703 223.12 148.313 229.605 145.898 237.842C145.141 240.399 145.094 244.328 145.094 285.371C145.094 333.94 144.952 331.526 147.792 337.349C151.106 344.213 156.976 348.757 164.881 350.651C166.491 351.03 184.906 351.172 230.919 351.172C298.282 351.172 297.667 351.172 302.732 349.041C303.774 348.615 305.904 347.29 307.466 346.106C312.673 342.13 315.893 336.828 316.981 330.343C317.928 324.473 317.928 246.316 316.981 240.399C315.561 231.925 310.07 224.824 302.496 221.747C301.312 221.274 299.845 220.658 299.182 220.327C298.33 219.948 280.294 219.806 232.197 219.712C196.03 219.664 166.207 219.712 165.923 219.806ZM288.483 249.488C288.625 250.103 288.767 266.435 288.767 285.844C288.767 312.685 288.625 321.301 288.199 321.727C287.394 322.532 175.107 322.532 174.302 321.727C173.497 320.922 173.497 249.819 174.302 249.014C174.728 248.588 188.077 248.446 231.535 248.446H288.199L288.483 249.488Z" fill="white"/>
<path d="M133.07 372.522C130.514 373.753 127.437 376.782 126.016 379.528C124.596 382.226 124.454 388.475 125.732 391.268C127.2 394.487 129.567 396.949 132.644 398.463L135.531 399.931H231.251H326.97L329.858 398.463C334.686 396.097 338 390.842 338 385.777C338 380.522 334.213 374.747 329.337 372.522L327.159 371.528H231.156C135.531 371.575 135.153 371.575 133.07 372.522Z" fill="white"/>
</svg>
