<svg viewBox="0 0 39 45" fill="none" xmlns="http://www.w3.org/2000/svg">
<path d="M15.5322 0.0759211C15.4204 0.118533 15.2659 0.198432 15.186 0.251697C15.0209 0.374208 0.420797 14.9796 0.276981 15.1714C0.0692451 15.4537 0 15.6827 0 16.1195C0 16.6255 0.0958779 16.8812 0.420797 17.2221C0.836268 17.6589 0.953452 17.6908 2.08801 17.7175C2.78046 17.7334 3.10005 17.7601 3.13734 17.8027C3.17462 17.8453 3.19593 19.6936 3.20658 23.0866C3.21724 26.8631 3.23854 28.3439 3.28648 28.4611C3.31844 28.5463 3.38768 28.7647 3.44095 28.9405C3.63803 29.5903 4.00024 30.1922 4.54355 30.7622C5.18273 31.4333 5.88051 31.8435 6.84461 32.1204C7.19617 32.2216 7.39858 32.2323 10.8182 32.2483C13.8117 32.2643 14.4349 32.2536 14.4829 32.195C14.5255 32.1471 14.5415 31.6677 14.5308 30.5864L14.5148 29.047L11.0526 29.0204C7.11627 28.9884 7.39858 29.0257 6.89788 28.525C6.69015 28.312 6.59427 28.1628 6.50904 27.9018L6.39186 27.5609V21.6218V15.6774L6.21076 15.3578C6.0989 15.1501 5.9391 14.9636 5.758 14.8251C5.60353 14.708 5.48102 14.5908 5.47569 14.5695C5.47569 14.5162 16.0223 3.93234 16.0755 3.93234C16.1394 3.93234 26.686 14.5055 26.686 14.5641C26.686 14.5961 26.6221 14.6707 26.5422 14.7239C26.1906 14.9636 25.9456 15.2832 25.8391 15.6401C25.7272 15.9863 25.7272 16.0875 25.7379 19.4326L25.7539 22.8682H27.3518H28.9498L28.9658 20.3541C28.9764 18.0264 28.9818 17.8346 29.0723 17.7867C29.1202 17.7601 29.5943 17.7281 30.1216 17.7175C31.1337 17.6961 31.1443 17.6908 31.5971 17.3925C31.8155 17.2434 32.0978 16.7747 32.1724 16.4338C32.2523 16.0769 32.199 15.736 32.0019 15.3471C31.922 15.198 29.3972 12.6359 24.3956 7.64495C17.2953 0.544657 16.8958 0.161146 16.6348 0.0759211C16.3046 -0.0252833 15.8198 -0.0252833 15.5322 0.0759211Z" fill="currentColor"/>
<path d="M17.5243 13.7332C17.3912 13.7545 17.1142 13.7971 16.9065 13.8291C16.6987 13.8557 16.443 13.9036 16.3472 13.9356C16.246 13.9676 16.0222 14.0315 15.8465 14.0794C15.6707 14.1273 15.447 14.2019 15.3511 14.2445C15.2552 14.2871 15.154 14.3191 15.1221 14.3191C15.0262 14.3191 13.8064 14.8944 13.4868 15.0915C13.2205 15.2566 12.8902 15.475 12.6772 15.6348C12.544 15.7306 12.3682 15.8638 12.2777 15.9277C12.1925 15.997 11.8516 16.3112 11.5266 16.6308C10.9354 17.2061 10.2962 18.0157 9.88074 18.6975C9.81149 18.8094 9.26819 19.9013 9.20959 20.0451C9.06578 20.3914 8.94859 20.8122 8.94859 20.9879C8.94859 21.2649 9.13502 21.7124 9.33743 21.9254C9.63039 22.229 9.87541 22.3302 10.3708 22.3302C10.7756 22.3302 10.8235 22.3196 11.0686 22.1491C11.3296 21.9734 11.6651 21.5526 11.6651 21.3981C11.6651 21.3555 11.6864 21.2969 11.7077 21.2649C11.7291 21.2383 11.8089 21.0732 11.8782 20.8974C12.2617 19.928 13.2205 18.7188 14.1686 17.9997C14.5308 17.7228 15.3564 17.1954 15.4257 17.1954C15.4417 17.1954 15.5642 17.1475 15.7027 17.0836C15.8411 17.025 16.0009 16.9557 16.0595 16.9291C16.182 16.8758 16.5656 16.7587 16.9917 16.6468C17.1515 16.6042 17.6042 16.5349 17.9931 16.4977C18.808 16.4231 19.7615 16.4923 20.4539 16.6734C21.6098 16.9824 21.5778 16.9824 21.8601 16.9185C22.3768 16.8066 22.6645 16.5829 22.8828 16.1035C23.1225 15.5975 23.0054 15.0116 22.5792 14.5854C22.3768 14.383 22.2543 14.3191 21.8335 14.1806C21.5565 14.0901 21.1517 13.9729 20.9333 13.9303C20.7149 13.8823 20.4007 13.8184 20.2409 13.7811C19.8893 13.7065 17.8652 13.6693 17.5243 13.7332Z" fill="currentColor"/>
<path d="M17.9505 18.1542C17.0396 18.2554 16.0009 18.6656 15.2339 19.2302C14.3391 19.8907 13.5401 20.9879 13.2045 22.0106C13.082 22.3888 13.0767 22.5007 13.1885 22.8256C13.3057 23.1825 13.4549 23.3849 13.7372 23.5766C14.094 23.811 14.4616 23.8909 14.7865 23.8003C15.2978 23.6619 15.5748 23.4328 15.7985 22.9534C15.8731 22.7883 15.9903 22.5486 16.0542 22.4154C16.1767 22.1544 16.8212 21.4673 17.0716 21.3342C17.6468 21.0305 18.1902 20.8707 18.6749 20.8707C18.8826 20.8707 19.2342 20.924 19.5378 21.0092C20.1237 21.1637 20.374 21.1584 20.7469 20.9773C21.1997 20.7589 21.4553 20.4073 21.5406 19.88C21.5885 19.6137 21.4287 19.1236 21.2103 18.852C21.0399 18.6389 20.5924 18.3832 20.2728 18.314C20.1556 18.2874 19.9586 18.2448 19.8467 18.2128C19.5484 18.1382 18.4192 18.1009 17.9505 18.1542Z" fill="currentColor"/>
<path d="M18.6695 24.7325C18.6429 24.7378 18.4725 24.7911 18.302 24.839C17.4072 25.1053 16.6881 25.8351 16.4164 26.7619C16.3312 27.0495 16.3259 27.4916 16.3259 32.1098C16.3259 37.5748 16.3099 37.3031 16.6295 37.9583C17.0023 38.7307 17.6628 39.242 18.5524 39.4551C18.7335 39.4977 20.8055 39.5137 25.9829 39.5137C33.5626 39.5137 33.4933 39.5137 34.0633 39.274C34.1805 39.226 34.4201 39.0769 34.5959 38.9437C35.1818 38.4963 35.544 37.8997 35.6666 37.17C35.7731 36.5095 35.7731 27.7154 35.6666 27.0495C35.5068 26.0961 34.8889 25.2971 34.0366 24.9509C33.9035 24.8976 33.7383 24.8284 33.6638 24.7911C33.5679 24.7485 31.5385 24.7325 26.1267 24.7218C22.0572 24.7165 18.7015 24.7218 18.6695 24.7325ZM32.46 28.0722C32.476 28.1415 32.4919 29.9791 32.4919 32.163C32.4919 35.1832 32.476 36.1526 32.428 36.2005C32.3375 36.2911 19.7029 36.2911 19.6123 36.2005C19.5218 36.11 19.5218 28.1095 19.6123 28.019C19.6603 27.971 21.1624 27.955 26.0521 27.955H32.428L32.46 28.0722Z" fill="currentColor"/>
<path d="M14.9729 41.9159C14.6853 42.0544 14.3391 42.3953 14.1793 42.7043C14.0195 43.0079 14.0035 43.711 14.1473 44.0253C14.3124 44.3875 14.5788 44.6644 14.925 44.8349L15.2499 45H26.0202H36.7905L37.1154 44.8349C37.6587 44.5686 38.0316 43.9773 38.0316 43.4074C38.0316 42.8161 37.6054 42.1663 37.0568 41.9159L36.8118 41.8041H26.0095C15.2499 41.8094 15.2073 41.8094 14.9729 41.9159Z" fill="currentColor"/>
</svg>
